<svg width="44" height="37" viewBox="0 0 48 41" fill="none" xmlns="http://www.w3.org/2000/svg">
<path d="M8.81118 0.820801L6.48724 2.93012L9.94509 6.07159L12.2657 3.96227L8.80953 0.820801H8.81118ZM39.1396 0.820801L35.6818 3.96227L38.0041 6.07159L41.4603 2.93162L39.1396 0.820801ZM23.9746 1.75694C23.4299 1.76294 22.8786 1.79145 22.3241 1.85296C22.3075 1.85296 22.291 1.84996 22.2745 1.85296C15.58 2.55056 10.2521 7.46679 9.32614 13.5247C8.58671 18.4004 10.7984 22.8216 14.484 25.669C15.9917 26.8385 17.0114 28.4433 17.3725 30.2147V39.216H21.1357C21.7101 40.1117 22.7581 40.7163 23.9746 40.7163C25.191 40.7163 26.2391 40.1117 26.8135 39.216H30.5767V33.2152H30.7318V31.4329C30.7318 29.2336 31.9895 27.0162 34.0329 25.2925C36.7662 22.8051 38.8293 19.2721 38.8293 15.214C38.8293 7.80285 32.1183 1.68793 23.9746 1.75694ZM23.9746 4.75739C30.3539 4.67638 35.5283 9.42309 35.5283 15.214C35.5283 18.3554 33.9273 21.1218 31.7106 23.1351L31.7634 23.1831C29.5606 25.0295 28.1362 27.517 27.7361 30.2162H20.5167C20.1536 27.6448 18.9405 25.1559 16.6479 23.3707C13.7314 21.1203 11.9934 17.7298 12.5744 13.9013C13.2957 9.17555 17.5144 5.37548 22.6839 4.8549C23.1107 4.80082 23.5405 4.76876 23.9713 4.75889L23.9746 4.75739ZM0.867188 15.214V18.2144H5.81877V15.214H0.867188ZM42.1304 15.214V18.2144H47.082V15.214H42.1304ZM9.94509 27.3568L6.48889 30.4967L8.81118 32.6076L12.2641 29.4661L9.94509 27.3568ZM38.0041 27.3568L35.6834 29.4661L39.138 32.6076L41.4603 30.4967L38.0041 27.3568ZM20.6735 33.2166H27.2756V36.2171H20.6735V33.2166Z" fill="#521656"/>
</svg>
