<svg  width="32" height="34" viewBox="0 0 42 38" fill="none" xmlns="http://www.w3.org/2000/svg">
				<path d="M33.6539 35.9997C31.8236 35.9997 29.2524 35.4324 25.4022 33.5889C20.7203 31.3389 17.099 29.2617 12.4424 25.2815C7.95273 21.4364 5.76791 18.9469 2.7101 14.1784C-0.744358 8.79445 -0.155488 5.97227 0.502771 4.7661C1.28668 3.32447 2.44379 2.46223 3.93941 1.60642C4.78891 1.12944 5.6879 0.720563 6.62496 0.384973C6.71873 0.350419 6.80594 0.317473 6.88376 0.28774C7.34792 0.108541 8.05119 -0.162265 8.942 0.127024C9.53649 0.318276 10.0672 0.70962 10.898 1.41275C12.6018 2.85277 14.9301 6.05986 15.789 7.63488C16.3657 8.69641 16.7473 9.39714 16.7483 10.183C16.7483 11.1031 16.2082 11.8127 15.5527 12.5785C15.4299 12.7224 15.308 12.8598 15.1898 12.9932C14.4763 13.7967 14.3197 14.029 14.4228 14.4436C14.6319 15.2769 16.1913 17.7576 18.754 19.949C21.3167 22.1403 24.1279 23.3923 25.1041 23.5707C25.6085 23.6631 25.8851 23.5233 26.8528 22.8901C26.9916 22.7993 27.1342 22.7052 27.2832 22.6112C28.2828 21.974 29.0724 21.5232 30.1207 21.5232H30.1263C31.0387 21.5232 31.8198 21.8623 33.1138 22.4216C34.8017 23.1512 38.6565 25.1208 40.3472 26.5825C41.1695 27.2929 41.6281 27.7461 41.8522 28.2548C42.1897 29.0206 41.8719 29.6209 41.6646 30.0227C41.6299 30.0893 41.5915 30.1625 41.5512 30.2436C41.1565 31.0452 40.6765 31.814 40.1174 32.5403C39.1207 33.818 38.1108 34.8072 36.4248 35.4798C35.5591 35.8307 34.6116 36.0085 33.6539 35.9997Z" fill="white"/>
			</svg>