<svg width="73" height="77" viewBox="0 0 73 77" fill="none" xmlns="http://www.w3.org/2000/svg">
<path id="chat" d="M36.3756 0C29.5498 0 22.7239 0.1904 16.3531 0.666401C12.3096 0.941191 8.49514 2.72668 5.60499 5.69742C2.71484 8.66815 0.941446 12.6263 0.60806 16.8504C-0.120033 27.0369 -0.211045 37.1281 0.426037 47.3145C0.774917 51.8415 2.75492 56.0608 5.96533 59.1185C9.17574 62.1761 13.3768 63.8439 17.7182 63.7841H27.2745V51.4081H17.7182C14.8969 51.5033 12.4396 49.4089 12.1665 46.4577C11.6205 36.9377 11.7115 27.4177 12.3486 17.8976C12.5306 15.232 14.5328 13.2328 17.0812 13.0424C23.27 12.5664 29.8228 12.376 36.3756 12.376C42.9285 12.376 49.4813 12.6616 55.6701 12.9472C58.1274 13.1376 60.2207 15.1368 60.4027 17.8024C61.1308 27.3225 61.1308 36.8425 60.5847 46.3625C60.2207 49.3137 57.8544 51.5033 55.033 51.4081H45.4768L27.2745 63.7841V76.1602L45.4768 63.7841H55.033C64.0432 63.8793 71.5971 56.6441 72.3252 47.3145C72.9623 37.2233 72.8713 27.0369 72.2342 16.9456C71.9008 12.7215 70.1274 8.76335 67.2373 5.79262C64.3471 2.82188 60.5327 1.03639 56.4892 0.761602C50.0274 0.1904 43.2015 0 36.3756 0ZM21.0857 27.7985C19.9935 27.7985 19.0834 28.7505 19.0834 29.8929V37.3185C19.0834 38.3657 19.6295 39.3177 20.5396 39.7937C25.4542 42.2689 30.9149 43.6017 36.3756 43.7921C41.8363 43.6017 47.297 42.2689 52.2117 39.7937C53.1218 39.3177 53.6678 38.3657 53.6678 37.3185V29.8929C53.6678 29.6073 53.5768 29.4169 53.3948 29.2265C53.2993 28.9652 53.1539 28.7271 52.9674 28.5267C52.7809 28.3263 52.5573 28.1678 52.3103 28.0609C52.0632 27.9539 51.7979 27.9008 51.5306 27.9048C51.2632 27.9088 50.9995 27.9698 50.7555 28.0841C46.2049 30.1785 41.2903 31.3209 36.2846 31.4161C31.279 31.3209 26.3643 30.0833 21.8138 27.9889C21.5875 27.87 21.3388 27.805 21.0857 27.7985Z" fill="#262244"/>
</svg>
