<svg width="173" height="177" viewBox="0 0 173 177" fill="none" xmlns="http://www.w3.org/2000/svg">
	<g filter="url(#filter0_d_1706_50107)">
	<path d="M86.3756 50C79.5498 50 72.7239 50.1904 66.3531 50.6664C62.3096 50.9412 58.4951 52.7267 55.605 55.6974C52.7148 58.6682 50.9414 62.6263 50.6081 66.8504C49.88 77.0369 49.789 87.1281 50.426 97.3145C50.7749 101.841 52.7549 106.061 55.9653 109.118C59.1757 112.176 63.3768 113.844 67.7182 113.784H77.2745V101.408H67.7182C64.8969 101.503 62.4396 99.4089 62.1665 96.4577C61.6205 86.9377 61.7115 77.4177 62.3486 67.8976C62.5306 65.232 64.5328 63.2328 67.0812 63.0424C73.27 62.5664 79.8228 62.376 86.3756 62.376C92.9285 62.376 99.4813 62.6616 105.67 62.9472C108.127 63.1376 110.221 65.1368 110.403 67.8024C111.131 77.3225 111.131 86.8425 110.585 96.3625C110.221 99.3137 107.854 101.503 105.033 101.408H95.4768L77.2745 113.784V126.16L95.4768 113.784H105.033C114.043 113.879 121.597 106.644 122.325 97.3145C122.962 87.2233 122.871 77.0369 122.234 66.9456C121.901 62.7215 120.127 58.7634 117.237 55.7926C114.347 52.8219 110.533 51.0364 106.489 50.7616C100.027 50.1904 93.2015 50 86.3756 50ZM71.0857 77.7985C69.9935 77.7985 69.0834 78.7505 69.0834 79.8929V87.3185C69.0834 88.3657 69.6295 89.3177 70.5396 89.7937C75.4542 92.2689 80.9149 93.6017 86.3756 93.7921C91.8363 93.6017 97.297 92.2689 102.212 89.7937C103.122 89.3177 103.668 88.3657 103.668 87.3185V79.8929C103.668 79.6073 103.577 79.4169 103.395 79.2265C103.299 78.9652 103.154 78.7271 102.967 78.5267C102.781 78.3263 102.557 78.1678 102.31 78.0609C102.063 77.9539 101.798 77.9008 101.531 77.9048C101.263 77.9088 101 77.9698 100.755 78.0841C96.2049 80.1785 91.2903 81.3209 86.2846 81.4161C81.279 81.3209 76.3643 80.0833 71.8138 77.9889C71.5875 77.87 71.3388 77.805 71.0857 77.7985Z" fill="#262C44"/>
	</g>
	<defs>
	<filter id="filter0_d_1706_50107" x="0" y="0" width="172.762" height="176.16" filterUnits="userSpaceOnUse" color-interpolation-filters="sRGB">
	<feFlood flood-opacity="0" result="BackgroundImageFix"/>
	<feColorMatrix in="SourceAlpha" type="matrix" values="0 0 0 0 0 0 0 0 0 0 0 0 0 0 0 0 0 0 127 0" result="hardAlpha"/>
	<feOffset/>
	<feGaussianBlur stdDeviation="25"/>
	<feComposite in2="hardAlpha" operator="out"/>
	<feColorMatrix type="matrix" values="0 0 0 0 1 0 0 0 0 1 0 0 0 0 1 0 0 0 1 0"/>
	<feBlend mode="normal" in2="BackgroundImageFix" result="effect1_dropShadow_1706_50107"/>
	<feBlend mode="normal" in="SourceGraphic" in2="effect1_dropShadow_1706_50107" result="shape"/>
	</filter>
	</defs>
</svg>