<svg
					width="22"
					height="32"
					viewBox="0 0 24 33"
					fill="none"
					xmlns="http://www.w3.org/2000/svg"
				>
					<path
						d="M12 15.675C10.8634 15.675 9.77327 15.2404 8.96954 14.4668C8.16582 13.6932 7.71429 12.644 7.71429 11.55C7.71429 10.456 8.16582 9.40677 8.96954 8.63318C9.77327 7.8596 10.8634 7.425 12 7.425C13.1366 7.425 14.2267 7.8596 15.0305 8.63318C15.8342 9.40677 16.2857 10.456 16.2857 11.55C16.2857 12.0917 16.1749 12.6281 15.9595 13.1286C15.7441 13.629 15.4284 14.0838 15.0305 14.4668C14.6325 14.8499 14.16 15.1537 13.6401 15.361C13.1201 15.5683 12.5628 15.675 12 15.675ZM12 0C8.8174 0 5.76516 1.21687 3.51472 3.38292C1.26428 5.54896 0 8.48675 0 11.55C0 20.2125 12 33 12 33C12 33 24 20.2125 24 11.55C24 8.48675 22.7357 5.54896 20.4853 3.38292C18.2348 1.21687 15.1826 0 12 0Z"
						fill="#94CA42"
					/>
				</svg>