<svg width="117" height="101" viewBox="0 0 117 101" fill="none" xmlns="http://www.w3.org/2000/svg">
<g id="lock">
<path id="Vector" d="M42.8304 31.168V39.4531H74.1696V31.168C74.1696 23.5387 67.1575 17.3594 58.5 17.3594C49.8425 17.3594 42.8304 23.5387 42.8304 31.168ZM30.2946 39.4531V31.168C30.2946 17.4457 42.9283 6.3125 58.5 6.3125C74.0717 6.3125 86.7054 17.4457 86.7054 31.168V39.4531H89.8393C96.7535 39.4531 102.375 44.407 102.375 50.5V83.6406C102.375 89.7337 96.7535 94.6875 89.8393 94.6875H27.1607C20.2465 94.6875 14.625 89.7337 14.625 83.6406V50.5C14.625 44.407 20.2465 39.4531 27.1607 39.4531H30.2946Z" fill="white"/>
</g>
</svg>
