<svg width="46" height="51" viewBox="0 0 46 51" fill="none" xmlns="http://www.w3.org/2000/svg">
<path id="Vector" d="M36.8591 50.3468C34.8544 50.3468 32.0383 49.5534 27.8215 46.9753C22.6937 43.8286 18.7275 40.9235 13.6274 35.3571C8.71013 29.9796 6.31724 26.4979 2.9682 19.8291C-0.81525 12.2994 -0.170297 8.35244 0.550654 6.66556C1.40922 4.64939 2.67654 3.44352 4.31459 2.24663C5.245 1.57956 6.2296 1.00773 7.25591 0.538399C7.35861 0.490074 7.45412 0.443997 7.53936 0.402415C8.04772 0.151799 8.81797 -0.226934 9.79362 0.177647C10.4447 0.445121 11.026 0.992429 11.9359 1.97579C13.802 3.9897 16.352 8.47493 17.2927 10.6777C17.9243 12.1622 18.3423 13.1422 18.3434 14.2413C18.3434 15.5281 17.7518 16.5205 17.0339 17.5915C16.8994 17.7927 16.7659 17.9848 16.6365 18.1714C15.8549 19.2952 15.6834 19.62 15.7964 20.1999C16.0254 21.3653 17.7333 24.8346 20.5401 27.8993C23.3469 30.964 26.4258 32.715 27.4949 32.9645C28.0474 33.0937 28.3504 32.8982 29.4103 32.0126C29.5623 31.8856 29.7184 31.7541 29.8817 31.6226C30.9764 30.7314 31.8412 30.1009 32.9893 30.1009H32.9955C33.9948 30.1009 34.8503 30.5752 36.2675 31.3574C38.1161 32.3778 42.3381 35.1323 44.1898 37.1766C45.0904 38.1701 45.5926 38.8039 45.8381 39.5153C46.2078 40.5863 45.8596 41.4258 45.6327 41.9877C45.5947 42.081 45.5526 42.1833 45.5084 42.2968C45.0761 43.4179 44.5505 44.4931 43.9381 45.5087C42.8464 47.2956 41.7404 48.6791 39.8938 49.6197C38.9456 50.1105 37.9079 50.3591 36.8591 50.3468Z" fill="#262C44"/>
</svg>
