<svg width="46" height="51" viewBox="0 0 46 51" fill="none" xmlns="http://www.w3.org/2000/svg">
<path id="Vector" d="M38.1117 40.9062L45.2511 35.0482C45.7306 34.6546 46 34.1207 46 33.5641C46 33.0074 45.7306 32.4735 45.2511 32.0799C44.7716 31.6863 44.1212 31.4652 43.4431 31.4652C42.765 31.4652 42.1146 31.6863 41.6351 32.0799L34.4989 37.9405L21.3542 27.1476C25.5249 26.6842 29.3258 24.9385 31.9888 22.2632C34.6519 19.5879 35.9785 16.1825 35.7007 12.7352C35.4228 9.28783 33.5612 6.05561 30.4919 3.69166C27.4227 1.3277 23.3748 0.00827216 19.1661 0H2.55548C1.87772 0 1.22773 0.221013 0.748482 0.614419C0.269237 1.00782 0 1.5414 0 2.09775V41.9551C0 42.5115 0.269237 43.045 0.748482 43.4384C1.22773 43.8318 1.87772 44.0528 2.55548 44.0528C3.23323 44.0528 3.88323 43.8318 4.36247 43.4384C4.84172 43.045 5.11095 42.5115 5.11095 41.9551V27.2708H14.2755L30.8861 40.9062L23.7468 46.7642C23.2673 47.1578 22.9979 47.6917 22.9979 48.2484C22.9979 48.805 23.2673 49.3389 23.7468 49.7325C24.2263 50.1261 24.8766 50.3473 25.5548 50.3473C26.2329 50.3473 26.8833 50.1261 27.3628 49.7325L34.4989 43.8719L41.6351 49.7325C41.8725 49.9274 42.1544 50.082 42.4646 50.1875C42.7748 50.293 43.1073 50.3473 43.4431 50.3473C43.7789 50.3473 44.1114 50.293 44.4216 50.1875C44.7318 50.082 45.0137 49.9274 45.2511 49.7325C45.4885 49.5376 45.6769 49.3062 45.8054 49.0516C45.9339 48.7969 46 48.524 46 48.2484C46 47.9727 45.9339 47.6998 45.8054 47.4451C45.6769 47.1905 45.4885 46.9591 45.2511 46.7642L38.1117 40.9062ZM5.11095 4.19551H19.1661C22.216 4.19551 25.1409 5.19007 27.2975 6.96039C29.4541 8.73071 30.6657 11.1318 30.6657 13.6354C30.6657 16.139 29.4541 18.5401 27.2975 20.3104C25.1409 22.0807 22.216 23.0753 19.1661 23.0753H5.11095V4.19551Z" fill="#262C44"/>
</svg>
