<svg width="188" height="183" viewBox="0 0 188 183" fill="none" xmlns="http://www.w3.org/2000/svg">
<path d="M86.7526 13.8773V7.12198C86.7526 5.33037 87.5143 3.61214 88.87 2.34528C90.2258 1.07841 92.0646 0.366699 93.982 0.366699C95.8993 0.366699 97.7382 1.07841 99.0939 2.34528C100.45 3.61214 101.211 5.33037 101.211 7.12198V13.8773C101.211 15.6689 100.45 17.3871 99.0939 18.654C97.7382 19.9208 95.8993 20.6325 93.982 20.6325C92.0646 20.6325 90.2258 19.9208 88.87 18.654C87.5143 17.3871 86.7526 15.6689 86.7526 13.8773ZM159.046 40.8984C159.996 40.8991 160.937 40.7249 161.814 40.3859C162.692 40.0469 163.489 39.5496 164.161 38.9225L171.391 32.1672C172.747 30.8996 173.509 29.1804 173.509 27.3878C173.509 25.5952 172.747 23.876 171.391 22.6085C170.034 21.3409 168.194 20.6288 166.276 20.6288C164.357 20.6288 162.518 21.3409 161.161 22.6085L153.932 29.3637C152.919 30.3085 152.23 31.5127 151.951 32.8237C151.671 34.1348 151.814 35.4939 152.362 36.729C152.91 37.964 153.837 39.0194 155.027 39.7616C156.217 40.5038 157.616 40.8994 159.046 40.8984ZM23.8027 38.9225C25.1593 40.19 26.9991 40.9021 28.9175 40.9021C30.836 40.9021 32.6758 40.19 34.0323 38.9225C35.3889 37.6549 36.1509 35.9357 36.1509 34.1431C36.1509 32.3505 35.3889 30.6313 34.0323 29.3637L26.8029 22.6085C25.4464 21.3409 23.6066 20.6288 21.6882 20.6288C19.7697 20.6288 17.9299 21.3409 16.5734 22.6085C15.2168 23.876 14.4547 25.5952 14.4547 27.3878C14.4547 29.1804 15.2168 30.8996 16.5734 32.1672L23.8027 38.9225ZM102.422 61.2571C101.482 61.1017 100.518 61.122 99.5858 61.3167C98.6538 61.5114 97.7723 61.8768 96.9923 62.3916C96.2123 62.9065 95.5491 63.5607 95.0412 64.3164C94.5333 65.0721 94.1907 65.9143 94.0331 66.7945C93.8755 67.6747 93.9061 68.5753 94.1231 69.4443C94.3401 70.3133 94.7393 71.1336 95.2975 71.8577C95.8557 72.5817 96.5619 73.1953 97.3753 73.6629C98.1888 74.1305 99.0933 74.4428 100.037 74.5819C117.179 77.2756 130.129 91.8332 130.129 108.451C130.129 110.243 130.891 111.961 132.246 113.228C133.602 114.495 135.441 115.206 137.358 115.206C139.276 115.206 141.114 114.495 142.47 113.228C143.826 111.961 144.588 110.243 144.588 108.451C144.588 85.3144 126.451 65.0232 102.404 61.2571H102.422ZM187.964 148.983V169.249C187.964 172.832 186.441 176.268 183.729 178.802C181.018 181.336 177.34 182.759 173.505 182.759H14.4588C10.6241 182.759 6.94642 181.336 4.23487 178.802C1.52333 176.268 0 172.832 0 169.249V148.983C0 145.4 1.52333 141.963 4.23487 139.429C6.94642 136.896 10.6241 135.472 14.4588 135.472V108.451C14.4585 98.6451 16.5353 88.936 20.5695 79.8834C24.6037 70.8309 30.5156 62.614 37.9642 55.7064C45.4129 48.7988 54.2511 43.3371 63.9693 39.6363C73.6875 35.9354 84.0935 34.0684 94.5875 34.1431C138.099 34.4471 173.505 68.1644 173.505 109.296V135.472C177.34 135.472 181.018 136.896 183.729 139.429C186.441 141.963 187.964 145.4 187.964 148.983ZM28.9175 135.472H159.046V109.296C159.046 75.5192 130.084 47.8985 94.479 47.6537H93.982C76.7258 47.6537 60.1764 54.0591 47.9745 65.4608C35.7725 76.8626 28.9175 92.3267 28.9175 108.451V135.472ZM173.505 169.249V148.983H14.4588V169.249H173.505Z" fill="white"/>
</svg>
