<svg
							width="320"
							height="30"
							viewBox="0 0 343 31"
							fill="none"
							xmlns="http://www.w3.org/2000/svg"
							style="cursor: pointer;"
						>
							<path
								d="M28.0508 15.2998C28.0508 8.2618 22.3388 2.5498 15.3008 2.5498C8.26278 2.5498 2.55078 8.2618 2.55078 15.2998C2.55078 21.4708 6.93678 26.6091 12.7508 27.7948V19.1248H10.2008V15.2998H12.7508V12.1123C12.7508 9.65155 14.7525 7.6498 17.2133 7.6498H20.4008V11.4748H17.8508C17.1495 11.4748 16.5758 12.0486 16.5758 12.7498V15.2998H20.4008V19.1248H16.5758V27.9861C23.0145 27.3486 28.0508 21.9171 28.0508 15.2998Z"
								fill="#FEFEFE"
							/>
							<path
								d="M105.724 6.3752C104.742 6.82145 103.684 7.1147 102.587 7.25495C103.709 6.5792 104.576 5.5082 104.984 4.22045C103.926 4.85795 102.753 5.3042 101.516 5.5592C100.509 4.4627 99.0938 3.8252 97.4873 3.8252C94.491 3.8252 92.043 6.2732 92.043 9.29495C92.043 9.72845 92.094 10.1492 92.1833 10.5444C87.6443 10.3149 83.6025 8.1347 80.9123 4.83245C80.4405 5.6357 80.1728 6.5792 80.1728 7.5737C80.1728 9.47345 81.129 11.1564 82.608 12.1127C81.7028 12.1127 80.8613 11.8577 80.1218 11.4752V11.5134C80.1218 14.1654 82.0088 16.3839 84.5078 16.8812C83.7055 17.1008 82.8632 17.1313 82.047 16.9704C82.3933 18.0574 83.0715 19.0084 83.9863 19.6899C84.9011 20.3714 86.0065 20.7492 87.147 20.7699C85.2137 22.3005 82.8171 23.1278 80.3513 23.1159C79.9178 23.1159 79.4843 23.0904 79.0508 23.0394C81.4733 24.5949 84.3548 25.5002 87.4403 25.5002C97.4873 25.5002 103.008 17.1617 103.008 9.93245C103.008 9.6902 103.008 9.46069 102.995 9.21844C104.066 8.45344 104.984 7.48445 105.724 6.3752Z"
								fill="white"
							/>
							<path
								d="M164.219 2.5498H174.929C179.009 2.5498 182.324 5.8648 182.324 9.9448V20.6548C182.324 22.6161 181.545 24.497 180.158 25.8839C178.771 27.2707 176.89 28.0498 174.929 28.0498H164.219C160.139 28.0498 156.824 24.7348 156.824 20.6548V9.9448C156.824 7.98353 157.603 6.10258 158.99 4.71575C160.377 3.32892 162.258 2.5498 164.219 2.5498ZM163.964 5.0998C162.747 5.0998 161.579 5.58339 160.719 6.44418C159.858 7.30498 159.374 8.47246 159.374 9.6898V20.9098C159.374 23.4471 161.427 25.4998 163.964 25.4998H175.184C176.402 25.4998 177.569 25.0162 178.43 24.1554C179.291 23.2946 179.774 22.1271 179.774 20.9098V9.6898C179.774 7.15255 177.721 5.0998 175.184 5.0998H163.964ZM176.268 7.0123C176.691 7.0123 177.096 7.18022 177.395 7.4791C177.694 7.77799 177.862 8.18337 177.862 8.60605C177.862 9.02874 177.694 9.43412 177.395 9.73301C177.096 10.0319 176.691 10.1998 176.268 10.1998C175.845 10.1998 175.44 10.0319 175.141 9.73301C174.842 9.43412 174.674 9.02874 174.674 8.60605C174.674 8.18337 174.842 7.77799 175.141 7.4791C175.44 7.18022 175.845 7.0123 176.268 7.0123ZM169.574 8.9248C171.265 8.9248 172.886 9.59645 174.082 10.792C175.278 11.9875 175.949 13.609 175.949 15.2998C175.949 16.9906 175.278 18.6121 174.082 19.8076C172.886 21.0032 171.265 21.6748 169.574 21.6748C167.883 21.6748 166.262 21.0032 165.066 19.8076C163.871 18.6121 163.199 16.9906 163.199 15.2998C163.199 13.609 163.871 11.9875 165.066 10.792C166.262 9.59645 167.883 8.9248 169.574 8.9248ZM169.574 11.4748C168.56 11.4748 167.587 11.8778 166.87 12.5951C166.152 13.3124 165.749 14.2854 165.749 15.2998C165.749 16.3143 166.152 17.2872 166.87 18.0045C167.587 18.7218 168.56 19.1248 169.574 19.1248C170.589 19.1248 171.562 18.7218 172.279 18.0045C172.996 17.2872 173.399 16.3143 173.399 15.2998C173.399 14.2854 172.996 13.3124 172.279 12.5951C171.562 11.8778 170.589 11.4748 169.574 11.4748Z"
								fill="white"
							/>
							<path
								d="M257.548 3.82422C258.225 3.82422 258.873 4.09288 259.352 4.5711C259.83 5.04931 260.098 5.69792 260.098 6.37422V24.2242C260.098 24.9005 259.83 25.5491 259.352 26.0273C258.873 26.5056 258.225 26.7742 257.548 26.7742H239.698C239.022 26.7742 238.374 26.5056 237.895 26.0273C237.417 25.5491 237.148 24.9005 237.148 24.2242V6.37422C237.148 5.69792 237.417 5.04931 237.895 4.5711C238.374 4.09288 239.022 3.82422 239.698 3.82422H257.548ZM256.911 23.5867V16.8292C256.911 15.7268 256.473 14.6696 255.694 13.8901C254.914 13.1106 253.857 12.6727 252.754 12.6727C251.671 12.6727 250.408 13.3357 249.796 14.3302V12.915H246.239V23.5867H249.796V17.301C249.796 16.3192 250.587 15.516 251.569 15.516C252.042 15.516 252.496 15.704 252.831 16.0388C253.166 16.3735 253.354 16.8276 253.354 17.301V23.5867H256.911ZM242.095 10.9132C242.664 10.9132 243.208 10.6875 243.61 10.2858C244.012 9.88414 244.237 9.33931 244.237 8.77122C244.237 7.58547 243.281 6.61647 242.095 6.61647C241.524 6.61647 240.976 6.84349 240.572 7.24758C240.168 7.65167 239.941 8.19974 239.941 8.77122C239.941 9.95697 240.91 10.9132 242.095 10.9132ZM243.868 23.5867V12.915H240.336V23.5867H243.868Z"
								fill="white"
							/>
							<path
								d="M325.126 19.125L331.743 15.3L325.126 11.475V19.125ZM339.865 9.14175C340.031 9.741 340.145 10.5442 340.222 11.5642C340.311 12.5842 340.349 13.464 340.349 14.229L340.426 15.3C340.426 18.0922 340.222 20.145 339.865 21.4583C339.546 22.6057 338.807 23.3452 337.659 23.664C337.06 23.8297 335.963 23.9445 334.28 24.021C332.623 24.1103 331.106 24.1485 329.703 24.1485L327.676 24.225C322.334 24.225 319.006 24.021 317.693 23.664C316.545 23.3452 315.806 22.6057 315.487 21.4583C315.321 20.859 315.206 20.0557 315.13 19.0358C315.041 18.0157 315.002 17.136 315.002 16.371L314.926 15.3C314.926 12.5078 315.13 10.455 315.487 9.14175C315.806 7.99425 316.545 7.25475 317.693 6.936C318.292 6.77025 319.388 6.6555 321.071 6.579C322.729 6.48975 324.246 6.4515 325.649 6.4515L327.676 6.375C333.018 6.375 336.346 6.579 337.659 6.936C338.807 7.25475 339.546 7.99425 339.865 9.14175Z"
								fill="white"
							/>
</svg>