<svg  width="40" height="42" viewBox="0 0 62 38" fill="none" xmlns="http://www.w3.org/2000/svg">
				<path d="M21.8689 0.75293C6.9256 0.75293 0.699219 2.6907 0.699219 4.25426V30.5465C0.699219 32.0743 6.9256 34.1217 21.8689 34.1217C36.8123 34.1217 43.0386 32.1839 43.0386 30.6203V4.32815C43.0386 2.80034 36.8123 0.75293 21.8689 0.75293ZM63.897 0.826818C63.4784 0.842785 63.0733 0.97259 62.729 1.20102L46.5404 11.1807C45.9177 11.6288 45.5292 12.3676 45.5292 13.1184V21.7562C45.5292 22.507 45.9177 23.2435 46.5404 23.6939L62.729 33.676C63.1673 33.993 65.2992 34.9869 65.2992 31.7382V3.13641C65.2992 1.26061 64.6243 0.798216 63.897 0.826818Z" fill="white"/>
			</svg>