<svg width="99" height="91" viewBox="0 0 99 91" fill="none" xmlns="http://www.w3.org/2000/svg">
<path id="Vector" d="M0 11.375C0 5.11875 4.455 0 9.9 0H84.15C85.4628 0 86.7219 0.599217 87.6502 1.66583C88.5785 2.73244 89.1 4.17908 89.1 5.6875V11.375H9.9V17.0625H94.05C95.3628 17.0625 96.6219 17.6617 97.5502 18.7283C98.4785 19.7949 99 21.2416 99 22.75V79.625C99 82.6418 97.957 85.5351 96.1003 87.6683C94.2437 89.8016 91.7256 91 89.1 91H9.9C7.27436 91 4.75625 89.8016 2.89964 87.6683C1.04303 85.5351 0 82.6418 0 79.625V11.375ZM81.675 62.5625C83.6442 62.5625 85.5328 61.6637 86.9253 60.0638C88.3177 58.4638 89.1 56.2939 89.1 54.0312C89.1 51.7686 88.3177 49.5987 86.9253 47.9987C85.5328 46.3988 83.6442 45.5 81.675 45.5C79.7058 45.5 77.8172 46.3988 76.4247 47.9987C75.0323 49.5987 74.25 51.7686 74.25 54.0312C74.25 56.2939 75.0323 58.4638 76.4247 60.0638C77.8172 61.6637 79.7058 62.5625 81.675 62.5625Z" fill="white"/>
</svg>
